<?xml version="1.0" standalone="no"?>
<!DOCTYPE svg PUBLIC "-//W3C//DTD SVG 20010904//EN"
 "http://www.w3.org/TR/2001/REC-SVG-20010904/DTD/svg10.dtd">
<svg version="1.0" xmlns="http://www.w3.org/2000/svg"
 width="1280.000000pt" height="640.000000pt" viewBox="0 0 1280.000000 640.000000"
 preserveAspectRatio="xMidYMid meet">
<metadata>
Created by potrace 1.15, written by Peter Selinger 2001-2017
</metadata>
<g transform="translate(0.000000,640.000000) scale(0.100000,-0.100000)"
fill="#000000" stroke="none">
<path d="M2640 6024 c-509 -63 -910 -305 -1071 -648 -21 -46 -45 -112 -54
-147 -19 -83 -19 -238 0 -314 57 -216 251 -387 556 -488 384 -127 1047 -137
1466 -22 48 13 89 23 91 21 14 -15 -303 -82 -468 -99 -23 -3 -17 -4 21 -5 69
-2 253 21 379 49 495 107 720 364 646 739 l-13 65 -5 -120 c-3 -66 -11 -137
-17 -158 -18 -58 -22 -39 -6 23 22 82 19 240 -5 328 -78 281 -320 521 -667
660 -212 85 -361 113 -623 117 -107 2 -211 1 -230 -1z m135 -122 c-6 -5 -41
-31 -80 -57 -153 -107 -322 -295 -405 -448 -130 -240 -150 -519 -58 -805 11
-35 18 -65 15 -68 -8 -8 -197 64 -292 111 -109 54 -189 116 -251 193 l-46 57
6 95 c15 240 97 423 260 577 130 124 276 207 477 271 105 34 275 71 369 81 8
0 10 -2 5 -7z m1351 -1109 c-41 -81 -132 -178 -216 -232 l-35 -22 30 23 c71
54 191 186 214 236 14 28 26 50 28 48 3 -2 -7 -26 -21 -53z m-256 -258 c0 -2
-18 -14 -40 -25 -22 -11 -40 -18 -40 -15 0 2 17 13 38 24 42 23 42 23 42 16z
m-120 -64 c-19 -10 -46 -21 -60 -25 -14 -3 -2 5 25 18 58 28 87 34 35 7z"/>
<path d="M9740 5890 c-478 -62 -893 -327 -1030 -657 -80 -193 -78 -398 7 -556
37 -67 132 -169 206 -219 267 -181 774 -270 1303 -228 615 49 981 251 1060
586 33 140 8 314 -64 459 -116 233 -370 432 -687 540 -174 59 -282 76 -515 80
-118 2 -244 0 -280 -5z m185 -108 c-6 -5 -54 -41 -107 -81 -105 -78 -232 -201
-303 -296 -63 -82 -141 -244 -166 -340 -43 -171 -34 -394 26 -582 13 -40 19
-73 15 -73 -23 0 -261 94 -318 126 -95 52 -177 118 -224 180 l-41 55 6 97 c8
130 37 238 94 352 41 80 63 110 148 196 110 111 201 173 347 236 107 46 275
94 413 118 125 22 121 22 110 12z"/>
<path d="M1305 5134 c-191 -97 -377 -215 -545 -345 -198 -152 -443 -425 -580
-644 -46 -74 -170 -323 -170 -341 0 -12 93 -96 209 -190 528 -423 1220 -716
1946 -824 333 -50 738 -63 1045 -35 85 8 184 16 220 19 l65 5 -60 -10 c-33 -5
-123 -16 -200 -24 l-140 -14 120 5 c116 5 144 8 250 20 327 37 609 99 920 202
281 93 627 261 885 430 92 60 302 221 358 274 39 38 52 57 52 79 0 35 -19 38
-46 8 -61 -68 -414 -333 -524 -394 -39 -21 14 18 110 82 177 118 450 340 450
366 0 6 -31 75 -70 153 -231 474 -635 870 -1162 1139 -70 36 -128 65 -131 65
-2 0 -7 -42 -11 -93 -20 -296 -163 -500 -452 -649 -255 -131 -567 -190 -1014
-190 -820 0 -1309 236 -1429 689 -13 48 -22 114 -23 162 0 53 -4 81 -12 81 -6
-1 -33 -12 -61 -26z m4032 -1015 c81 -34 104 -114 58 -206 -87 -173 -375 -284
-531 -205 -43 22 -79 65 -70 85 2 7 5 5 5 -4 1 -9 9 -23 19 -32 16 -14 17 -13
18 24 4 79 110 207 223 268 74 39 163 71 205 72 30 1 29 2 -7 9 -53 10 -57 19
-5 13 24 -3 62 -14 85 -24z m-159 14 c-10 -2 -28 -2 -40 0 -13 2 -5 4 17 4 22
1 32 -1 23 -4z m-127 -28 c-18 -8 -36 -15 -40 -15 -13 1 45 29 59 29 8 0 0 -6
-19 -14z m-4333 -46 c82 -27 177 -92 219 -147 161 -213 -111 -354 -405 -210
-164 81 -248 241 -170 326 27 29 78 52 110 51 17 -1 14 -4 -12 -11 -31 -9 -40
-19 -74 -90 -34 -72 -37 -83 -25 -107 12 -26 12 -25 21 24 6 32 19 60 36 78
28 30 114 78 167 93 28 8 26 9 -25 15 -46 6 -43 6 20 3 42 -2 103 -13 138 -25z
m4267 16 c-91 -62 -114 -82 -140 -117 -17 -21 -36 -54 -43 -71 l-12 -32 6 30
c10 52 74 125 153 176 45 29 73 40 36 14z m-198 -257 c-3 -7 -5 -2 -5 12 0 14
2 19 5 13 2 -7 2 -19 0 -25z m-2926 -197 c173 -54 282 -185 235 -282 -57 -120
-309 -144 -498 -48 -74 38 -159 130 -158 171 1 7 8 -3 16 -22 l16 -35 13 39
c28 81 88 135 191 172 l69 24 -85 -4 c-47 -2 -94 -7 -105 -12 -11 -4 -17 -4
-13 1 28 30 216 28 319 -4z m-359 -22 c-18 -12 -39 -33 -47 -48 -8 -14 -14
-20 -15 -12 0 16 66 81 83 81 7 0 -3 -10 -21 -21z m2556 -6 c-16 -2 -40 -2
-55 0 -16 2 -3 4 27 4 30 0 43 -2 28 -4z m153 -8 c56 -20 107 -69 115 -111 27
-147 -234 -312 -461 -291 -34 3 -81 13 -103 23 -46 18 -102 75 -102 102 1 10
7 4 14 -14 14 -32 41 -59 30 -30 -10 26 41 118 91 168 26 25 69 58 96 73 67
36 184 75 233 76 l41 2 -40 7 -40 7 41 2 c23 0 61 -6 85 -14z m-280 -11 c-25
-8 -47 -12 -49 -9 -5 5 56 23 78 23 8 0 -5 -6 -29 -14z m-112 -45 c-70 -38
-126 -94 -144 -145 -8 -22 -14 -31 -15 -21 0 28 24 68 67 109 38 36 119 88
138 88 6 0 -15 -14 -46 -31z m-2382 -41 c-3 -7 -5 -2 -5 12 0 14 2 19 5 13 2
-7 2 -19 0 -25z m1631 -106 c176 -68 212 -197 82 -291 -72 -52 -130 -66 -276
-66 l-131 0 -79 40 c-74 38 -125 87 -124 119 1 6 8 -2 16 -18 l16 -29 32 64
c22 46 45 74 79 100 54 40 158 80 226 87 25 2 48 7 51 9 8 8 -212 -4 -235 -13
-11 -4 -17 -4 -13 1 29 31 273 29 356 -3z m-460 -55 c-32 -24 -48 -46 -60 -82
-9 -28 -17 -42 -18 -32 0 34 28 84 66 115 21 18 42 32 47 32 5 0 -11 -15 -35
-33z m2477 14 c-16 -14 -105 -63 -105 -58 0 5 101 66 110 67 2 0 0 -4 -5 -9z
m-115 -66 c0 -2 -22 -16 -50 -30 -27 -14 -50 -23 -50 -20 0 2 21 16 48 29 53
28 52 28 52 21z m-130 -70 c0 -6 -97 -55 -107 -55 -4 1 17 14 47 30 61 32 60
32 60 25z m-180 -90 c-25 -13 -49 -24 -55 -24 -5 0 10 11 35 24 25 13 50 24
55 24 6 0 -10 -11 -35 -24z m-80 -35 c-8 -5 -19 -10 -25 -10 -5 0 -3 5 5 10 8
5 20 10 25 10 6 0 3 -5 -5 -10z m-50 -20 c-8 -5 -19 -10 -25 -10 -5 0 -3 5 5
10 8 5 20 10 25 10 6 0 3 -5 -5 -10z m-60 -25 c-14 -8 -29 -14 -35 -14 -5 0 1
6 15 14 14 8 30 14 35 14 6 0 -1 -6 -15 -14z m-80 -29 c0 -6 -123 -47 -127
-42 -2 2 22 13 54 24 62 22 73 24 73 18z m-170 -61 c-19 -7 -42 -13 -50 -13
-8 0 1 6 20 13 19 7 42 13 50 13 8 0 -1 -6 -20 -13z m-130 -39 c-20 -8 -51
-16 -70 -19 -23 -4 -15 0 20 12 62 21 104 27 50 7z m-150 -42 c-25 -7 -52 -13
-60 -13 -21 1 60 27 85 27 11 0 0 -6 -25 -14z m-125 -29 c-27 -7 -59 -13 -70
-13 -11 0 3 6 30 13 28 7 59 13 70 13 11 0 -2 -6 -30 -13z m-150 -30 c-58 -13
-186 -28 -155 -19 29 9 165 31 190 32 14 0 -2 -6 -35 -13z"/>
<path d="M8410 4989 c-145 -77 -211 -116 -330 -197 -293 -200 -564 -481 -736
-762 -56 -92 -164 -308 -164 -328 0 -25 273 -247 445 -362 919 -614 2136 -833
3285 -589 574 122 1119 363 1562 691 154 115 298 241 298 261 0 24 -131 280
-186 365 -249 382 -585 679 -1036 917 l-125 65 -6 -107 c-19 -381 -280 -635
-777 -756 -383 -94 -947 -94 -1330 0 -496 120 -755 372 -778 755 l-7 107 -115
-60z m4058 -981 c189 -116 -78 -428 -368 -428 -254 0 -276 227 -37 381 133 86
309 106 405 47z m-4649 -33 c128 -31 264 -123 304 -207 9 -20 17 -56 17 -81 0
-54 -24 -88 -83 -119 -60 -32 -196 -31 -290 1 -130 44 -241 140 -268 231 -15
49 -6 83 34 126 54 59 163 78 286 49z m1151 -440 c118 -31 229 -105 266 -178
22 -41 20 -104 -3 -136 -27 -36 -113 -78 -180 -87 -171 -21 -408 84 -458 204
-37 87 5 159 113 198 49 18 194 17 262 -1z m2341 -41 c134 -40 175 -128 107
-230 -98 -147 -380 -226 -540 -152 -164 76 -116 246 96 344 117 54 237 67 337
38z m-1119 -203 c109 -41 168 -101 168 -170 0 -113 -147 -195 -345 -195 -385
1 -479 298 -121 380 84 19 225 12 298 -15z"/>
<path d="M1420 4885 c0 -5 5 -17 10 -25 5 -8 10 -10 10 -5 0 6 -5 17 -10 25
-5 8 -10 11 -10 5z"/>
<path d="M3013 4313 c20 -2 54 -2 75 0 20 2 3 4 -38 4 -41 0 -58 -2 -37 -4z"/>
<path d="M5520 3519 c-371 -333 -979 -624 -1590 -759 -629 -140 -1308 -155
-1950 -44 -287 49 -649 151 -905 254 -275 110 -639 316 -818 463 -26 22 -50
37 -54 34 -3 -4 18 -48 47 -99 382 -672 1271 -1130 2345 -1209 194 -14 601 -6
765 15 63 8 140 17 170 20 l55 5 -45 -9 c-63 -14 -286 -40 -342 -40 -26 0 -49
-3 -52 -8 -2 -4 44 -4 102 0 369 25 719 91 997 188 50 17 99 34 110 36 11 3
27 8 35 11 8 3 21 7 28 9 29 6 284 137 392 201 186 111 275 175 376 268 99 93
211 221 201 232 -16 15 -80 -29 -175 -119 -117 -111 -312 -271 -312 -255 0 2
33 29 74 60 173 130 306 267 423 434 57 81 188 334 182 351 -2 6 -29 -12 -59
-39z m-635 -819 c-3 -5 -16 -15 -28 -21 -19 -9 -19 -8 3 10 28 23 34 26 25 11z
m-70 -46 c-26 -20 -55 -36 -55 -30 0 5 63 46 70 46 3 -1 -4 -8 -15 -16z m-65
-39 c0 -2 -10 -9 -22 -15 -22 -11 -22 -10 -4 4 21 17 26 19 26 11z m-50 -30
c0 -2 -18 -14 -40 -25 -22 -11 -40 -18 -40 -15 0 2 17 13 38 24 42 23 42 23
42 16z m-230 -120 c-25 -13 -49 -24 -55 -24 -5 0 10 11 35 24 25 13 50 24 55
24 6 0 -10 -11 -35 -24z m-115 -49 c-53 -25 -103 -42 -95 -33 7 8 123 55 135
55 6 0 -12 -10 -40 -22z m-107 -41 c-7 -8 -180 -65 -192 -64 -11 1 171 67 188
68 5 1 7 -1 4 -4z m-218 -74 c-8 -5 -31 -11 -50 -14 -35 -6 -35 -6 5 8 46 15
67 18 45 6z m-93 -27 c-3 -3 -12 -4 -19 -1 -8 3 -5 6 6 6 11 1 17 -2 13 -5z
m-52 -14 c-11 -5 -29 -8 -40 -8 -16 0 -15 2 5 8 34 11 60 11 35 0z m-67 -15
c-8 -8 -210 -46 -222 -42 -6 2 36 13 94 24 117 23 136 25 128 18z"/>
<path d="M12576 3374 c-394 -335 -980 -599 -1617 -728 -287 -58 -533 -84 -869
-93 -857 -22 -1706 184 -2357 571 -93 55 -247 161 -346 237 l-29 22 35 -70
c307 -608 1110 -1076 2072 -1207 304 -41 746 -46 1030 -12 958 117 1726 532
2078 1124 48 82 121 243 109 241 -4 0 -51 -39 -106 -85z"/>
<path d="M5038 2719 c-151 -102 -317 -199 -480 -280 -86 -44 -162 -79 -167
-79 -5 0 -13 -5 -16 -10 -4 -6 15 -20 42 -32 249 -110 581 -345 730 -516 123
-142 118 -130 152 -372 38 -264 130 -850 137 -869 7 -22 49 23 74 81 24 55 84
310 95 401 4 32 9 57 11 54 5 -5 -13 -157 -21 -187 -3 -10 2 -16 14 -17 14 -1
21 10 29 50 35 160 74 526 92 856 10 176 10 225 -1 275 l-14 61 -6 -100 -5
-100 -2 135 -2 135 -68 96 c-170 241 -281 351 -452 446 l-55 31 -87 -59z m659
-906 c-2 -21 -4 -4 -4 37 0 41 2 58 4 38 2 -21 2 -55 0 -75z m-10 -150 c-2
-21 -4 -6 -4 32 0 39 2 55 4 38 2 -18 2 -50 0 -70z m-10 -110 c-2 -16 -4 -5
-4 22 0 28 2 40 4 28 2 -13 2 -35 0 -50z m-10 -110 c-2 -16 -4 -3 -4 27 0 30
2 43 4 28 2 -16 2 -40 0 -55z m-10 -80 c-3 -10 -5 -2 -5 17 0 19 2 27 5 18 2
-10 2 -26 0 -35z m-10 -90 c-2 -16 -4 -5 -4 22 0 28 2 40 4 28 2 -13 2 -35 0
-50z m-13 -102 c-4 -34 -9 -60 -11 -57 -3 3 -2 32 2 66 4 34 9 59 12 57 2 -3
1 -33 -3 -66z"/>
<path d="M584 2737 c-154 -83 -280 -210 -439 -441 l-69 -99 12 -256 c19 -391
63 -785 122 -1075 35 -174 61 -252 99 -290 l30 -29 5 24 c7 34 51 293 72 422
20 125 30 137 14 15 -6 -45 -13 -96 -15 -113 -2 -16 -1 -24 2 -17 2 6 10 12
17 12 18 0 39 106 76 380 34 251 54 320 113 400 53 71 225 243 304 303 65 49
245 170 338 225 58 35 60 38 45 62 -8 12 -15 11 -54 -8 -76 -36 -51 -16 33 28
43 22 87 47 97 55 18 13 18 14 -8 24 -117 45 -449 228 -621 343 -48 32 -93 61
-100 63 -6 3 -40 -10 -73 -28z m616 -512 c0 -2 -13 -11 -30 -20 -38 -19 -40
-11 -2 9 31 17 32 18 32 11z m-71 -40 c-6 -5 -116 -77 -139 -89 -37 -22 10 15
69 53 57 36 84 50 70 36z m-189 -123 c-124 -97 -164 -132 -238 -205 -98 -96
-181 -205 -183 -238 -2 -24 -2 -24 -6 -1 -7 38 99 171 236 296 74 67 211 176
221 175 3 0 -11 -12 -30 -27z m-433 -524 c-2 -13 -4 -5 -4 17 -1 22 1 32 4 23
2 -10 2 -28 0 -40z m-10 -65 c-3 -10 -5 -4 -5 12 0 17 2 24 5 18 2 -7 2 -21 0
-30z m-10 -75 c-2 -13 -4 -5 -4 17 -1 22 1 32 4 23 2 -10 2 -28 0 -40z m-10
-65 c-3 -10 -5 -4 -5 12 0 17 2 24 5 18 2 -7 2 -21 0 -30z m-10 -75 c-2 -13
-4 -5 -4 17 -1 22 1 32 4 23 2 -10 2 -28 0 -40z m-10 -65 c-3 -10 -5 -4 -5 12
0 17 2 24 5 18 2 -7 2 -21 0 -30z m-10 -70 c-3 -10 -5 -2 -5 17 0 19 2 27 5
18 2 -10 2 -26 0 -35z"/>
<path d="M2928 2723 c28 -2 76 -2 105 0 28 2 5 3 -53 3 -58 0 -81 -1 -52 -3z"/>
<path d="M7754 2651 c-161 -88 -263 -190 -435 -433 l-72 -101 6 -188 c17 -488
91 -1068 167 -1312 19 -61 71 -140 83 -127 7 6 96 565 137 855 30 212 33 222
66 270 135 195 391 399 707 566 123 65 158 89 126 89 -19 0 -297 141 -411 209
-62 37 -155 95 -206 129 -51 35 -98 65 -105 67 -6 3 -35 -8 -63 -24z"/>
<path d="M12163 2629 c-134 -91 -336 -209 -501 -290 -90 -45 -162 -82 -160
-84 2 -1 64 -35 138 -75 319 -170 574 -374 705 -564 34 -50 36 -57 70 -296 52
-363 128 -830 136 -830 19 0 59 58 77 112 76 234 156 856 168 1313 l6 210 -90
123 c-112 155 -203 256 -289 321 -57 43 -172 112 -184 111 -2 0 -37 -23 -76
-51z"/>
<path d="M2793 2133 c9 -2 23 -2 30 0 6 3 -1 5 -18 5 -16 0 -22 -2 -12 -5z"/>
<path d="M2943 2133 c37 -2 96 -2 130 0 34 2 4 3 -68 3 -71 0 -99 -1 -62 -3z"/>
<path d="M2479 2084 c-14 -18 -20 -11 94 -107 90 -74 171 -227 216 -403 11
-44 39 -184 61 -310 52 -295 49 -281 65 -288 39 -15 51 38 80 349 9 94 20 188
25 210 8 35 9 33 5 -18 -5 -51 -3 -58 12 -55 11 2 27 37 53 118 36 116 70 185
123 252 32 40 31 62 -2 71 -21 5 -37 -9 -84 -73 -17 -24 -17 -24 0 9 25 47
117 146 170 183 33 22 43 35 41 51 -3 22 -5 22 -138 17 -199 -7 -480 -6 -601
3 -92 6 -108 5 -120 -9z m592 -382 c-14 -43 -27 -75 -29 -70 -4 8 12 62 35
116 24 58 21 34 -6 -46z m-34 -114 c-3 -8 -6 -5 -6 6 -1 11 2 17 5 13 3 -3 4
-12 1 -19z"/>
<path d="M9628 2004 c-16 -15 -7 -40 20 -56 124 -74 221 -230 277 -443 21 -81
105 -533 105 -565 0 -5 7 -16 16 -25 40 -40 56 22 79 294 17 202 27 276 50
365 35 135 117 258 231 347 40 32 64 58 62 68 -4 18 11 17 -363 11 -110 -2
-261 0 -335 4 -74 5 -138 5 -142 0z"/>
</g>
</svg>
